<?xml version="1.0" standalone="no"?>
<!DOCTYPE svg PUBLIC "-//W3C//DTD SVG 20010904//EN"
 "http://www.w3.org/TR/2001/REC-SVG-20010904/DTD/svg10.dtd">
<svg version="1.0" xmlns="http://www.w3.org/2000/svg"
 width="500.000000pt" height="500.000000pt" viewBox="0 0 500.000000 500.000000"
 preserveAspectRatio="xMidYMid meet">

<g transform="translate(0.000000,500.000000) scale(0.100000,-0.100000)"
fill="#000000" stroke="none">
<path d="M1200 3878 c-8 -13 -40 -70 -71 -128 -31 -58 -91 -168 -134 -245
-160 -290 -233 -423 -280 -510 -26 -49 -79 -144 -116 -211 -38 -66 -69 -125
-69 -129 0 -8 -28 -58 -131 -236 -21 -37 -63 -113 -92 -170 -30 -57 -76 -142
-102 -189 -27 -47 -65 -116 -85 -155 -20 -38 -55 -104 -78 -146 l-42 -76 0
-217 0 -216 166 2 165 3 76 135 c41 74 102 187 135 250 33 63 69 125 79 139
10 13 19 30 19 37 0 12 117 14 713 14 l712 0 69 -118 c39 -64 92 -155 119
-202 27 -47 64 -107 82 -135 19 -27 41 -67 51 -88 l18 -37 93 0 94 0 -27 48
c-28 48 -127 215 -144 242 -6 8 -22 37 -36 64 -14 27 -56 99 -94 160 -37 61
-83 138 -102 172 -32 58 -114 197 -302 512 -50 84 -98 165 -106 180 -8 15 -43
72 -76 127 -34 55 -72 120 -84 145 l-23 45 -28 -60 -29 -59 35 -69 c19 -38 50
-92 68 -120 82 -127 187 -316 187 -336 0 -8 -135 -11 -465 -11 l-465 0 21 42
c11 22 55 100 97 172 41 72 102 181 134 241 58 107 81 148 299 533 l103 182
43 0 c42 0 45 -2 80 -57 20 -32 54 -88 74 -126 39 -69 60 -104 142 -233 26
-41 64 -105 86 -142 21 -37 63 -107 93 -157 195 -318 270 -440 433 -705 32
-52 75 -124 95 -160 206 -365 285 -460 453 -543 171 -85 133 -82 892 -82 665
0 671 0 748 22 77 23 214 81 275 118 l32 19 0 586 -1 585 -60 44 c-136 98
-300 154 -509 171 -65 5 -296 7 -535 3 -468 -6 -539 -1 -615 45 -59 36 -105
112 -121 202 -23 131 23 300 98 357 69 52 76 53 767 53 l641 1 76 72 c41 39
117 110 167 157 l92 84 0 63 0 63 -777 0 c-428 0 -817 -4 -864 -9 -209 -22
-329 -71 -462 -188 -182 -160 -260 -437 -212 -755 17 -115 49 -198 111 -291
56 -83 126 -140 248 -200 180 -90 173 -89 841 -96 l580 -6 56 -26 c73 -34 120
-83 158 -162 107 -225 39 -430 -161 -483 -68 -18 -1065 -21 -1144 -4 -63 14
-135 61 -166 108 -33 49 -99 159 -173 286 -33 57 -89 151 -125 210 -36 59 -85
142 -110 184 -25 42 -71 115 -101 162 -31 47 -66 105 -78 128 -12 24 -69 122
-127 217 -57 95 -104 176 -104 179 0 4 -34 64 -76 134 -42 70 -98 165 -124
212 -25 47 -67 119 -92 160 -25 41 -67 112 -93 158 l-47 82 -372 0 -371 0 -15
-22z"/>
<path d="M2540 3848 c-12 -29 -35 -80 -50 -113 -14 -33 -41 -96 -59 -140 -19
-44 -44 -105 -58 -135 l-24 -55 44 -80 c25 -44 80 -141 123 -215 l79 -136 0
171 c1 199 11 255 69 380 72 154 200 278 354 345 l67 29 -261 1 -262 0 -22
-52z"/>
<path d="M4920 40 l0 -40 40 0 40 0 0 40 0 40 -40 0 -40 0 0 -40z"/>
</g>
</svg>
